<svg width="30" height="30" viewBox="0 0 30 30" fill="none" xmlns="http://www.w3.org/2000/svg">
<path fill-rule="evenodd" clip-rule="evenodd" d="M15 0.369999C6.71625 0.369999 0 7.085 0 15.37C0 21.9975 4.2975 27.62 10.2575 29.6038C11.0075 29.7425 11.2825 29.2788 11.2825 28.8825C11.2825 28.525 11.2688 27.3437 11.2625 26.09C7.09 26.9975 6.20875 24.32 6.20875 24.32C5.52625 22.5862 4.54375 22.125 4.54375 22.125C3.1825 21.1938 4.64625 21.2138 4.64625 21.2138C6.1525 21.32 6.945 22.76 6.945 22.76C8.2825 25.0525 10.4538 24.39 11.31 24.0062C11.445 23.0362 11.8338 22.375 12.2625 22C8.93125 21.6212 5.42875 20.335 5.42875 14.5875C5.42875 12.95 6.015 11.6112 6.975 10.5612C6.81875 10.1825 6.305 8.6575 7.12 6.59125C7.12 6.59125 8.38 6.18875 11.2462 8.12875C12.4425 7.79625 13.725 7.63 15 7.62375C16.275 7.63 17.5587 7.79625 18.7575 8.12875C21.62 6.1875 22.8787 6.59125 22.8787 6.59125C23.695 8.6575 23.1812 10.1825 23.0262 10.5612C23.9875 11.6112 24.57 12.95 24.57 14.5875C24.57 20.3487 21.0612 21.6175 17.7213 21.9887C18.2588 22.4537 18.7388 23.3675 18.7388 24.7662C18.7388 26.7737 18.7213 28.3888 18.7213 28.8825C18.7213 29.2813 18.9912 29.75 19.7512 29.6025C25.7087 27.6162 30.0012 21.9962 30.0012 15.3712C30 7.08625 23.2837 0.369999 15 0.369999Z" fill="white"/>
<path d="M5.68125 21.9075C5.64875 21.9825 5.53125 22.005 5.42375 21.9537C5.315 21.905 5.25375 21.8025 5.28875 21.7287C5.32125 21.6525 5.43875 21.6312 5.5475 21.6825C5.65625 21.73 5.71875 21.8325 5.68125 21.9075Z" fill="white"/>
<path d="M6.28876 22.585C6.21751 22.6512 6.0775 22.62 5.9825 22.5162C5.88375 22.4112 5.86625 22.2712 5.93875 22.205C6.0125 22.1387 6.14751 22.17 6.24626 22.275C6.34501 22.3787 6.36376 22.5175 6.28876 22.585Z" fill="white"/>
<path d="M6.88 23.4487C6.7875 23.5125 6.6375 23.4525 6.545 23.32C6.4525 23.1862 6.4525 23.0262 6.5475 22.9625C6.64 22.8987 6.78875 22.9562 6.8825 23.0887C6.97375 23.2237 6.97375 23.3837 6.88 23.4487Z" fill="white"/>
<path d="M7.69 24.2837C7.6075 24.375 7.4325 24.35 7.305 24.2262C7.17375 24.105 7.1375 23.9337 7.22 23.8425C7.30375 23.7512 7.48 23.7775 7.60875 23.9C7.73875 24.0212 7.7775 24.1937 7.69 24.2837Z" fill="white"/>
<path d="M8.80875 24.7675C8.7725 24.885 8.60375 24.9387 8.43375 24.8887C8.26375 24.8375 8.1525 24.7 8.1875 24.5813C8.2225 24.4625 8.3925 24.4075 8.56375 24.4612C8.7325 24.5112 8.84375 24.6487 8.80875 24.7675Z" fill="white"/>
<path d="M10.0363 24.8575C10.04 24.9812 9.89625 25.0837 9.7175 25.0862C9.53875 25.09 9.3925 24.99 9.39125 24.8687C9.39125 24.7437 9.5325 24.6425 9.71125 24.6387C9.89 24.635 10.0363 24.735 10.0363 24.8575Z" fill="white"/>
<path d="M11.1787 24.6637C11.2 24.7837 11.0762 24.9087 10.8987 24.9412C10.725 24.9737 10.5637 24.8987 10.5412 24.7787C10.52 24.655 10.6462 24.5312 10.82 24.4987C10.9962 24.4675 11.1562 24.54 11.1787 24.6637Z" fill="white"/>
</svg>
