<svg width="30" height="30" viewBox="0 0 30 30" fill="none" xmlns="http://www.w3.org/2000/svg">
<path d="M6.42875 10.165H0.328125V29.9231H6.42875V10.165Z" fill="white"/>
<path d="M29.8612 18.2825C29.6606 13.3812 27.6537 9.70562 22.8856 9.49375C17.8475 9.27062 16.28 12.74 16.28 12.74V10.165H10.1787V29.9231H16.28V18.2825C16.28 18.2825 16.4481 15.6506 18.9244 14.8531C21.4012 14.0556 23.7812 15.9025 23.7812 18.715V29.9237H29.8819V18.2825H29.8612Z" fill="white"/>
<path d="M3.37813 6.59687C5.17857 6.59687 6.63813 5.13732 6.63813 3.33687C6.63813 1.53643 5.17857 0.0768738 3.37813 0.0768738C1.57768 0.0768738 0.118126 1.53643 0.118126 3.33687C0.118126 5.13732 1.57768 6.59687 3.37813 6.59687Z" fill="white"/>
</svg>
