<svg width="30" height="26" viewBox="0 0 30 26" fill="none" xmlns="http://www.w3.org/2000/svg">
<path d="M9.43441 25.1883C20.7552 25.1883 26.9472 15.8091 26.9472 7.67547C26.9472 7.4091 26.9472 7.14391 26.9292 6.87988C28.1338 6.00853 29.1737 4.92976 30 3.69391C28.8767 4.19166 27.685 4.51803 26.4648 4.66228C27.7494 3.8933 28.7115 2.68287 29.1708 1.25787C27.9626 1.97476 26.6407 2.48008 25.2624 2.75189C24.0986 1.51433 22.4732 0.811737 20.7745 0.811737C17.3947 0.811737 14.6137 3.59283 14.6137 6.97252C14.6137 7.44139 14.6672 7.90879 14.7732 8.36547C9.82682 8.11756 5.21186 5.77791 2.08799 1.93469C0.463535 4.73113 1.30406 8.35516 3.99357 10.1511C3.01418 10.122 2.05582 9.85779 1.2 9.38066V9.45865C1.20082 12.3774 3.27697 14.9144 6.13799 15.4923C5.23189 15.7394 4.28098 15.7755 3.35883 15.5979C4.16314 18.0989 6.48252 19.8229 9.10922 19.8723C6.93012 21.5848 4.23674 22.515 1.4652 22.5123C0.975469 22.5113 0.486211 22.4817 0 22.4235C2.81449 24.2296 6.09023 25.1879 9.43441 25.1835" fill="white"/>
</svg>
